<svg class="animated" id="freepik_stories-oral-care" xmlns="http://www.w3.org/2000/svg" viewBox="0 0 500 500" version="1.1" xmlns:xlink="http://www.w3.org/1999/xlink" xmlns:svgjs="http://svgjs.com/svgjs"><style>svg#freepik_stories-oral-care:not(.animated) .animable {opacity: 0;}svg#freepik_stories-oral-care.animated #freepik--background-complete--inject-9 {animation: 1s 1 forwards cubic-bezier(.36,-0.01,.5,1.38) lightSpeedLeft;animation-delay: 0s;}svg#freepik_stories-oral-care.animated #freepik--Shadow--inject-9 {animation: 1s 1 forwards cubic-bezier(.36,-0.01,.5,1.38) lightSpeedLeft;animation-delay: 0s;}svg#freepik_stories-oral-care.animated #freepik--Toothpaste--inject-9 {animation: 1s 1 forwards cubic-bezier(.36,-0.01,.5,1.38) lightSpeedLeft;animation-delay: 0s;}svg#freepik_stories-oral-care.animated #freepik--speech-bubble--inject-9 {animation: 1s 1 forwards cubic-bezier(.36,-0.01,.5,1.38) lightSpeedRight;animation-delay: 0s;}svg#freepik_stories-oral-care.animated #freepik--Shield--inject-9 {animation: 1s 1 forwards cubic-bezier(.36,-0.01,.5,1.38) slideDown;animation-delay: 0s;}svg#freepik_stories-oral-care.animated #freepik--Foam--inject-9 {animation: 1s 1 forwards cubic-bezier(.36,-0.01,.5,1.38) zoomOut;animation-delay: 0s;}svg#freepik_stories-oral-care.animated #freepik--Tooth--inject-9 {animation: 1s 1 forwards cubic-bezier(.36,-0.01,.5,1.38) zoomOut;animation-delay: 0s;}svg#freepik_stories-oral-care.animated #freepik--Character--inject-9 {animation: 1s 1 forwards cubic-bezier(.36,-0.01,.5,1.38) zoomOut;animation-delay: 0s;}            @keyframes lightSpeedLeft {              from {                transform: translate3d(-50%, 0, 0) skewX(20deg);                opacity: 0;              }              60% {                transform: skewX(-10deg);                opacity: 1;              }              80% {                transform: skewX(2deg);              }              to {                opacity: 1;                transform: translate3d(0, 0, 0);              }            }                    @keyframes lightSpeedRight {              from {                transform: translate3d(50%, 0, 0) skewX(-20deg);                opacity: 0;              }              60% {                transform: skewX(10deg);                opacity: 1;              }              80% {                transform: skewX(-2deg);              }              to {                opacity: 1;                transform: translate3d(0, 0, 0);              }            }                    @keyframes slideDown {                0% {                    opacity: 0;                    transform: translateY(-30px);                }                100% {                    opacity: 1;                    transform: translateY(0);                }            }                    @keyframes zoomOut {                0% {                    opacity: 0;                    transform: scale(1.5);                }                100% {                    opacity: 1;                    transform: scale(1);                }            }        </style><g id="freepik--background-complete--inject-9" class="animable" style="transform-origin: 250px 228.23px;"><rect x="416.78" y="398.49" width="33.12" height="0.25" style="fill: rgb(235, 235, 235); transform-origin: 433.34px 398.615px;" id="eloo010vtl3f" class="animable"></rect><rect x="322.53" y="401.21" width="8.69" height="0.25" style="fill: rgb(235, 235, 235); transform-origin: 326.875px 401.335px;" id="elavwsmfldsu8" class="animable"></rect><rect x="396.59" y="389.21" width="19.19" height="0.25" style="fill: rgb(235, 235, 235); transform-origin: 406.185px 389.335px;" id="elbb4ugjnm6dd" class="animable"></rect><rect x="52.46" y="390.89" width="43.19" height="0.25" style="fill: rgb(235, 235, 235); transform-origin: 74.055px 391.015px;" id="elvwi0lfxiar" class="animable"></rect><rect x="104.56" y="390.89" width="6.33" height="0.25" style="fill: rgb(235, 235, 235); transform-origin: 107.725px 391.015px;" id="elg2eb0ds4wfh" class="animable"></rect><rect x="131.47" y="395.11" width="93.68" height="0.25" style="fill: rgb(235, 235, 235); transform-origin: 178.31px 395.235px;" id="elk8jzkogzt98" class="animable"></rect><path d="M238.4,337.8H45.3a5.71,5.71,0,0,1-5.71-5.71V60.66A5.71,5.71,0,0,1,45.3,55H238.4a5.71,5.71,0,0,1,5.71,5.71V332.09A5.71,5.71,0,0,1,238.4,337.8ZM45.3,55.2a5.47,5.47,0,0,0-5.46,5.46V332.09a5.47,5.47,0,0,0,5.46,5.46H238.4a5.47,5.47,0,0,0,5.46-5.46V60.66a5.47,5.47,0,0,0-5.46-5.46Z" style="fill: rgb(235, 235, 235); transform-origin: 141.85px 196.4px;" id="elairy0eof8ep" class="animable"></path><path d="M454.7,337.8H261.6a5.71,5.71,0,0,1-5.71-5.71V60.66A5.71,5.71,0,0,1,261.6,55H454.7a5.71,5.71,0,0,1,5.71,5.71V332.09A5.71,5.71,0,0,1,454.7,337.8ZM261.6,55.2a5.47,5.47,0,0,0-5.46,5.46V332.09a5.47,5.47,0,0,0,5.46,5.46H454.7a5.47,5.47,0,0,0,5.46-5.46V60.66a5.47,5.47,0,0,0-5.46-5.46Z" style="fill: rgb(235, 235, 235); transform-origin: 358.15px 196.4px;" id="elbrvfayumgfw" class="animable"></path><rect y="382.4" width="500" height="0.25" style="fill: rgb(235, 235, 235); transform-origin: 250px 382.525px;" id="elj7k2s7h9fa" class="animable"></rect><path d="M418.6,287.55c-1.92,1.92-2.82,10.49-2.82,10.49s-.91-8.57-2.83-10.49-10.48-2.82-10.48-2.82,8.56-.9,10.48-2.82,2.83-10.49,2.83-10.49.9,8.57,2.82,10.49,10.49,2.82,10.49,2.82S420.52,285.63,418.6,287.55Z" style="fill: rgb(245, 245, 245); transform-origin: 415.78px 284.73px;" id="elzk85rw2rni" class="animable"></path><path d="M432.7,330.77c-3,3-4.36,16.2-4.36,16.2s-1.4-13.23-4.36-16.2-16.21-4.37-16.21-4.37S421,325,424,322s4.36-16.21,4.36-16.21,1.4,13.24,4.36,16.21,16.21,4.36,16.21,4.36S435.67,327.8,432.7,330.77Z" style="fill: rgb(240, 240, 240); transform-origin: 428.35px 326.38px;" id="el849cv5jb81h" class="animable"></path><path d="M401,342.69c-1.28,1.28-1.89,7-1.89,7s-.6-5.73-1.88-7-7-1.89-7-1.89,5.73-.6,7-1.89,1.88-7,1.88-7,.61,5.73,1.89,7,7,1.89,7,1.89S402.24,341.4,401,342.69Z" style="fill: rgb(235, 235, 235); transform-origin: 399.115px 340.8px;" id="elpnlfxoyize" class="animable"></path><path d="M111.69,110.77c3.6,3.6,19.69,5.3,19.69,5.3s-16.09,1.7-19.69,5.3-5.31,19.7-5.31,19.7-1.7-16.09-5.3-19.7-19.7-5.3-19.7-5.3,16.09-1.7,19.7-5.3,5.3-19.7,5.3-19.7S108.08,107.16,111.69,110.77Z" style="fill: rgb(245, 245, 245); transform-origin: 106.38px 116.07px;" id="elxmwpp19m94" class="animable"></path><path d="M138.27,88.42c1.8,1.8,9.85,2.65,9.85,2.65s-8.05.85-9.85,2.65-2.65,9.85-2.65,9.85-.85-8-2.65-9.85-9.85-2.65-9.85-2.65,8-.85,9.85-2.65,2.65-9.85,2.65-9.85S136.47,86.61,138.27,88.42Z" style="fill: rgb(240, 240, 240); transform-origin: 135.62px 91.07px;" id="elmzs56rp6bxc" class="animable"></path><path d="M172.13,125c1.29,1.28,7,1.89,7,1.89s-5.72.6-7,1.89-1.89,7-1.89,7-.6-5.73-1.89-7-7-1.89-7-1.89,5.73-.61,7-1.89,1.89-7,1.89-7S170.85,123.73,172.13,125Z" style="fill: rgb(235, 235, 235); transform-origin: 170.24px 126.89px;" id="elqjumkydcv1m" class="animable"></path><path d="M338.86,86.82C336.94,88.74,336,97.31,336,97.31s-.9-8.57-2.82-10.49S322.73,84,322.73,84s8.57-.91,10.49-2.83S336,70.69,336,70.69s.9,8.57,2.82,10.48S349.35,84,349.35,84,340.78,84.9,338.86,86.82Z" style="fill: rgb(245, 245, 245); transform-origin: 336.04px 84px;" id="elgqkbo0owec" class="animable"></path><path d="M194.86,80.07a8.06,8.06,0,1,0,8.06,8.06A8.05,8.05,0,0,0,194.86,80.07Zm0,6c-2.45,0-4.44,2.51-4.44.06a4.45,4.45,0,1,1,8.89,0C199.31,88.58,197.32,86.07,194.86,86.07Z" style="fill: rgb(245, 245, 245); transform-origin: 194.86px 88.13px;" id="elpm70ao8ke3" class="animable"></path><path d="M201.44,83.49a7,7,0,0,1,.52,2.64,7.1,7.1,0,1,1-14.19,0,7,7,0,0,1,.51-2.64,8.06,8.06,0,1,0,13.16,0Z" style="fill: rgb(240, 240, 240); transform-origin: 194.86px 89.8474px;" id="el7gw9fzd7ztc" class="animable"></path><path d="M197.57,102.2A10.77,10.77,0,1,0,208.33,113,10.76,10.76,0,0,0,197.57,102.2Zm0,8c-3.28,0-5.93,3.35-5.93.07a5.93,5.93,0,0,1,11.86,0C203.5,113.57,200.85,110.22,197.57,110.22Z" style="fill: rgb(250, 250, 250); transform-origin: 197.56px 112.97px;" id="elsvo5ksvly39" class="animable"></path><path d="M206.36,106.77a9.48,9.48,0,1,1-17.58,0,10.76,10.76,0,1,0,17.58,0Z" style="fill: rgb(245, 245, 245); transform-origin: 197.57px 115.253px;" id="elok07uemcss" class="animable"></path><path d="M209.11,92.6a4.61,4.61,0,1,0,0,6.52A4.61,4.61,0,0,0,209.11,92.6ZM206.68,95c-1-1-2.81-.78-1.82-1.78a2.54,2.54,0,0,1,3.59,3.6C207.46,97.84,207.67,96,206.68,95Z" style="fill: rgb(245, 245, 245); transform-origin: 205.85px 95.86px;" id="eld4b4u4fesog" class="animable"></path><path d="M210.39,96.65a4.06,4.06,0,0,1-6.61,1.28,4.06,4.06,0,0,1,0-5.75,4.12,4.12,0,0,1,1.28-.86,4.61,4.61,0,0,0-2.47,7.8,4.61,4.61,0,0,0,7.8-2.47Z" style="fill: rgb(240, 240, 240); transform-origin: 205.816px 95.8944px;" id="elvvg6o8maa0k" class="animable"></path><path d="M97.34,346.16A9.3,9.3,0,1,0,84.2,346,9.3,9.3,0,0,0,97.34,346.16Zm-4.85-4.94c2-2,1.63-5.66,3.61-3.64a5.12,5.12,0,1,1-7.31,7.18C86.81,342.74,90.47,343.2,92.49,341.22Z" style="fill: rgb(245, 245, 245); transform-origin: 90.8501px 339.499px;" id="el0qu1yykcicx" class="animable"></path><path d="M89.16,348.66A8.18,8.18,0,1,1,100,338a9.29,9.29,0,1,0-15.8,8A9.17,9.17,0,0,0,89.16,348.66Z" style="fill: rgb(240, 240, 240); transform-origin: 90.7704px 339.432px;" id="elwntclren65" class="animable"></path><path d="M83.43,314.7a12.42,12.42,0,1,0-17.56-.17A12.42,12.42,0,0,0,83.43,314.7ZM77,308.1c2.7-2.65,2.18-7.56,4.83-4.86A6.85,6.85,0,1,1,72,312.83C69.36,310.13,74.26,310.75,77,308.1Z" style="fill: rgb(250, 250, 250); transform-origin: 74.735px 305.831px;" id="elt5nkywt8tz" class="animable"></path><path d="M72.5,318a10.94,10.94,0,1,1,12.19-17.68A11.08,11.08,0,0,1,87,303.83,12.42,12.42,0,1,0,72.5,318Z" style="fill: rgb(245, 245, 245); transform-origin: 74.6572px 305.681px;" id="el8he00lyaxlj" class="animable"></path><path d="M437.79,181a12.42,12.42,0,1,0-17.56-.17A12.43,12.43,0,0,0,437.79,181Zm-6.48-6.6c2.7-2.65,2.18-7.56,4.82-4.86a6.85,6.85,0,0,1-9.77,9.59C423.71,176.39,428.61,177,431.31,174.36Z" style="fill: rgb(250, 250, 250); transform-origin: 429.095px 172.129px;" id="elr5z1kjnzcab" class="animable"></path><path d="M426.86,184.3a10.93,10.93,0,1,1,14.48-14.21,12.42,12.42,0,1,0-14.48,14.21Z" style="fill: rgb(245, 245, 245); transform-origin: 429px 171.98px;" id="elb61xmrp9pn" class="animable"></path><path d="M302,123.06a17.46,17.46,0,1,0-24.69-.23A17.46,17.46,0,0,0,302,123.06Zm-9.1-9.28c3.79-3.72,3.05-10.62,6.78-6.83a9.63,9.63,0,0,1-13.74,13.49C282.17,116.64,289.06,117.51,292.86,113.78Z" style="fill: rgb(250, 250, 250); transform-origin: 289.77px 110.599px;" id="elz4sphexyer" class="animable"></path><path d="M286.6,127.77a15.38,15.38,0,1,1,20.35-20,17.46,17.46,0,1,0-20.35,20Z" style="fill: rgb(245, 245, 245); transform-origin: 289.605px 110.45px;" id="elefn550iozur" class="animable"></path><path d="M429,199.91a5.32,5.32,0,1,0-5.27-5.37A5.31,5.31,0,0,0,429,199.91Zm0-4c1.62,0,2.95-1.63,2.93,0a2.93,2.93,0,1,1-5.86-.05C426.07,194.27,427.37,195.94,429,196Z" style="fill: rgb(245, 245, 245); transform-origin: 429.05px 194.59px;" id="el88rhx1e76gv" class="animable"></path><path d="M424.63,197.62a4.91,4.91,0,0,1-.33-1.76,4.69,4.69,0,0,1,9.38.09,4.84,4.84,0,0,1-.36,1.75,5.32,5.32,0,1,0-8.69-.08Z" style="fill: rgb(240, 240, 240); transform-origin: 429.003px 193.485px;" id="eltadlx9l1ckk" class="animable"></path><path d="M196.94,347.5c3.6,3.6,19.69,5.3,19.69,5.3s-16.09,1.7-19.69,5.3-5.31,19.7-5.31,19.7-1.69-16.09-5.3-19.7-19.7-5.3-19.7-5.3,16.1-1.7,19.7-5.3,5.3-19.7,5.3-19.7S193.33,343.89,196.94,347.5Z" style="fill: rgb(245, 245, 245); transform-origin: 191.63px 352.8px;" id="elxa0t6sftrug" class="animable"></path><path d="M366,117.05c-1.8,1.8-2.65,9.85-2.65,9.85s-.85-8.05-2.65-9.85-9.85-2.65-9.85-2.65,8-.85,9.85-2.65,2.65-9.85,2.65-9.85.85,8,2.65,9.85,9.85,2.65,9.85,2.65S367.77,115.25,366,117.05Z" style="fill: rgb(240, 240, 240); transform-origin: 363.35px 114.4px;" id="elsc2sgur2ls" class="animable"></path></g><g id="freepik--Shadow--inject-9" class="animable" style="transform-origin: 250px 412.39px;"><ellipse id="freepik--path--inject-9" cx="250" cy="412.39" rx="193.89" ry="11.32" style="fill: rgb(245, 245, 245); transform-origin: 250px 412.39px;" class="animable"></ellipse></g><g id="freepik--Toothpaste--inject-9" class="animable" style="transform-origin: 117.365px 268.09px;"><g id="elnu8yfpfmz3m"><rect x="120.21" y="350.95" width="33.9" height="7.2" style="fill: rgb(64, 123, 255); transform-origin: 137.16px 354.55px; transform: rotate(-6deg);" class="animable"></rect></g><g id="elq34qxbmzjp8"><rect x="120.49" y="355.91" width="36" height="22.58" style="fill: rgb(64, 123, 255); transform-origin: 138.49px 367.2px; transform: rotate(-6deg);" class="animable"></rect></g><g id="elygbosokv0je"><rect x="120.49" y="355.91" width="36" height="22.58" style="fill: rgb(255, 255, 255); opacity: 0.5; transform-origin: 138.49px 367.2px; transform: rotate(-6deg);" class="animable"></rect></g><g id="el430rd9rrfkt"><g style="opacity: 0.4; transform-origin: 139.308px 369.632px;" class="animable"><path d="M135.32,361.11a.9.9,0,0,0-.8,1l1.75,16.68,1.79-.19-1.75-16.68A.91.91,0,0,0,135.32,361.11Z" style="fill: rgb(255, 255, 255); transform-origin: 136.287px 369.948px;" id="el25hpni8hm9b" class="animable"></path><path d="M141.36,360.48a.9.9,0,0,0-.8,1l1.75,16.68,1.79-.19-1.75-16.68A.89.89,0,0,0,141.36,360.48Z" style="fill: rgb(255, 255, 255); transform-origin: 142.327px 369.317px;" id="el05se9ypl3rfd" class="animable"></path><path d="M129.28,361.75a.89.89,0,0,0-.8,1l1.75,16.68,1.79-.19-1.75-16.68A.9.9,0,0,0,129.28,361.75Z" style="fill: rgb(255, 255, 255); transform-origin: 130.246px 370.588px;" id="el11d8mmnrxoq" class="animable"></path><path d="M147.4,359.84a.91.91,0,0,0-.8,1l1.75,16.68,1.79-.19-1.75-16.68A.9.9,0,0,0,147.4,359.84Z" style="fill: rgb(255, 255, 255); transform-origin: 148.367px 368.678px;" id="elxgma7k2k02l" class="animable"></path><path d="M153.44,359.21a.9.9,0,0,0-.8,1l1.76,16.68,1.79-.19L154.43,360A.89.89,0,0,0,153.44,359.21Z" style="fill: rgb(255, 255, 255); transform-origin: 154.412px 368.047px;" id="elipph2bspq2" class="animable"></path><path d="M126,379.86l-1.76-16.68a.9.9,0,0,0-1-.8.91.91,0,0,0-.81,1l1.76,16.68Z" style="fill: rgb(255, 255, 255); transform-origin: 124.213px 371.217px;" id="el2w4b3b3ozii" class="animable"></path></g></g><path d="M74.73,164.71l1.21,11.52L112.79,349a8.15,8.15,0,0,0,8.81,6.4l31-3.26a8.12,8.12,0,0,0,7.28-8.09L160,167.4l-1.22-11.53Z" style="fill: rgb(64, 123, 255); transform-origin: 117.365px 255.657px;" id="elq317fzeqgfm" class="animable"></path><g id="elexvosh1prc"><path d="M74.73,164.71l1.21,11.52L112.79,349a8.15,8.15,0,0,0,8.81,6.4l31-3.26a8.12,8.12,0,0,0,7.28-8.09L160,167.4l-1.22-11.53Z" style="fill: rgb(255, 255, 255); opacity: 0.8; transform-origin: 117.365px 255.657px;" class="animable"></path></g><g id="elhdrbf61v6c"><rect x="74.99" y="160.26" width="84.48" height="9.42" style="fill: rgb(255, 255, 255); opacity: 0.2; transform-origin: 117.23px 164.97px; transform: rotate(-6deg);" class="animable"></rect></g><g id="eltzjqrd756cg"><path d="M85.55,173l.23,2.12L119.3,346.31c.79,4,4,6.82,7.44,6.46l25.73-2.7c3.44-.37,6-3.76,5.94-7.87l-2.82-174.47-.22-2.12Z" style="fill: rgb(255, 255, 255); opacity: 0.6; transform-origin: 121.981px 259.205px;" class="animable"></path></g><g id="el6wnwsye0mdf"><g style="opacity: 0.5; transform-origin: 117.233px 163.677px;" class="animable"><path d="M126.7,166.22a.9.9,0,0,0,.8-1l-.63-6-1.79.18.63,6A.91.91,0,0,0,126.7,166.22Z" style="fill: rgb(255, 255, 255); transform-origin: 126.293px 162.722px;" id="elnud0r31ej5" class="animable"></path><path d="M132.74,165.58a.89.89,0,0,0,.8-1l-.63-6-1.79.19.63,6A.91.91,0,0,0,132.74,165.58Z" style="fill: rgb(255, 255, 255); transform-origin: 132.334px 162.082px;" id="el3k7dav692tn" class="animable"></path><path d="M120.66,166.85a.9.9,0,0,0,.8-1l-.63-6-1.79.19.63,6A.91.91,0,0,0,120.66,166.85Z" style="fill: rgb(255, 255, 255); transform-origin: 120.253px 163.352px;" id="elqsvqelxx41j" class="animable"></path><path d="M138.78,165a.91.91,0,0,0,.81-1l-.64-6-1.79.18.64,6A.9.9,0,0,0,138.78,165Z" style="fill: rgb(255, 255, 255); transform-origin: 138.377px 161.502px;" id="elgxkt7n69snu" class="animable"></path><path d="M114.62,167.49a.91.91,0,0,0,.8-1l-.63-6-1.79.18.63,6A.9.9,0,0,0,114.62,167.49Z" style="fill: rgb(255, 255, 255); transform-origin: 114.213px 163.992px;" id="el2hcs6iow0xx" class="animable"></path><path d="M150.87,163.68a.91.91,0,0,0,.8-1l-.63-6-1.79.18.63,6A.9.9,0,0,0,150.87,163.68Z" style="fill: rgb(255, 255, 255); transform-origin: 150.463px 160.182px;" id="elooebjus31fs" class="animable"></path><path d="M144.83,164.31a.9.9,0,0,0,.8-1l-.63-6-1.79.19.63,6A.9.9,0,0,0,144.83,164.31Z" style="fill: rgb(255, 255, 255); transform-origin: 144.423px 160.812px;" id="el7yum02yi2t8" class="animable"></path><path d="M108.58,168.12a.9.9,0,0,0,.8-1l-.63-6-1.79.19.63,6A.9.9,0,0,0,108.58,168.12Z" style="fill: rgb(255, 255, 255); transform-origin: 108.173px 164.622px;" id="elqv686c9jm2" class="animable"></path><path d="M78.37,171.3a.91.91,0,0,0,.8-1l-.63-6-1.79.18.63,6A.9.9,0,0,0,78.37,171.3Z" style="fill: rgb(255, 255, 255); transform-origin: 77.9625px 167.802px;" id="elidzk90ts0y" class="animable"></path><path d="M84.41,170.66a.9.9,0,0,0,.8-1l-.63-6-1.79.19.63,6A.9.9,0,0,0,84.41,170.66Z" style="fill: rgb(255, 255, 255); transform-origin: 84.0031px 167.162px;" id="el6pgd5lho01u" class="animable"></path><path d="M102.53,168.76a.91.91,0,0,0,.81-1l-.64-6-1.79.18.64,6A.9.9,0,0,0,102.53,168.76Z" style="fill: rgb(255, 255, 255); transform-origin: 102.127px 165.262px;" id="elv9ij34gpzkk" class="animable"></path><path d="M155.29,156.24l.63,6a.9.9,0,1,0,1.79-.19l-.63-6Z" style="fill: rgb(255, 255, 255); transform-origin: 156.503px 159.549px;" id="elodcibdoj10f" class="animable"></path><path d="M90.45,170a.9.9,0,0,0,.8-1l-.63-6-1.79.18.63,6A.91.91,0,0,0,90.45,170Z" style="fill: rgb(255, 255, 255); transform-origin: 90.0431px 166.502px;" id="elhf6zslydgb4" class="animable"></path><path d="M96.49,169.39a.89.89,0,0,0,.8-1l-.63-6-1.79.19.63,6A.91.91,0,0,0,96.49,169.39Z" style="fill: rgb(255, 255, 255); transform-origin: 96.0837px 165.892px;" id="elrvos4se3b8" class="animable"></path></g></g><path d="M159.87,318.33l0-57.4c-14.62-18-59.39-30.9-76.24-48.48L97.6,277.8C111.81,292.41,149.94,303,159.87,318.33Z" style="fill: rgb(64, 123, 255); transform-origin: 121.75px 265.39px;" id="elab8kfuvkfhk" class="animable"></path><path d="M127.75,270.9s1.94-.16,2.93,4.61,1,8.28,2.51,8.33,4.61-5,4.23-9.46-.58-8.56,0-11.33c.7-3.22,2.82-8.65-1.23-11.66-3.54-2.64-7.28,1.27-10.35,1.59l-.21,0c-3.07.32-7.54-2.72-10.46.6-3.33,3.78-.13,8.66,1.23,11.66,1.17,2.59,1.84,6.64,2.38,11.07s4.68,8.73,6.11,8.38.74-3.79.72-8.67,1.9-5.12,1.9-5.12Z" style="fill: rgb(255, 255, 255); transform-origin: 126.153px 267.595px;" id="eldl9hcv9peib" class="animable"></path><path d="M154.37,260.13c-.65-2.12-6.42-2.36-14.52-1-.13.71-.28,1.39-.44,2,3.08-.21,5.12.15,5.43,1.14.65,2.11-6.72,6.28-16.47,9.31s-18.19,3.77-18.85,1.66c-.39-1.27,2.12-3.29,6.31-5.35-.16-.57-.34-1.1-.53-1.59-9.45,3.9-15.64,8.1-14.88,10.53,1,3.23,13.89,2.09,28.79-2.54S155.38,263.35,154.37,260.13Z" style="fill: rgb(64, 123, 255); transform-origin: 127.395px 268.476px;" id="eljgd62lvge1i" class="animable"></path><g id="elxr2nbtvl11m"><path d="M154.37,260.13c-.65-2.12-6.42-2.36-14.52-1-.13.71-.28,1.39-.44,2,3.08-.21,5.12.15,5.43,1.14.65,2.11-6.72,6.28-16.47,9.31s-18.19,3.77-18.85,1.66c-.39-1.27,2.12-3.29,6.31-5.35-.16-.57-.34-1.1-.53-1.59-9.45,3.9-15.64,8.1-14.88,10.53,1,3.23,13.89,2.09,28.79-2.54S155.38,263.35,154.37,260.13Z" style="fill: rgb(255, 255, 255); opacity: 0.6; transform-origin: 127.395px 268.476px;" class="animable"></path></g></g><g id="freepik--speech-bubble--inject-9" class="animable" style="transform-origin: 347.285px 118.378px;"><path d="M364.56,133.69,362.27,127a18.67,18.67,0,1,0-7.3,7.59l6.53,2.22A2.41,2.41,0,0,0,364.56,133.69Z" style="fill: rgb(64, 123, 255); transform-origin: 345.877px 118.378px;" id="elkzc4on43zws" class="animable"></path><g id="elznvczn93vsq"><path d="M364.56,133.69,362.27,127a18.67,18.67,0,1,0-7.3,7.59l6.53,2.22A2.41,2.41,0,0,0,364.56,133.69Z" style="fill: rgb(255, 255, 255); opacity: 0.6; transform-origin: 345.877px 118.378px;" class="animable"></path></g><path d="M346,122s1.41,0,1.76,3.54.12,6,1.18,6.19,3.7-3.26,3.76-6.49a30.73,30.73,0,0,1,.88-8.16c.75-2.26,2.69-6,0-8.49-2.35-2.17-5.34.36-7.58.36h-.15c-2.24,0-5.23-2.53-7.58-.36-2.69,2.47-.75,6.23,0,8.49a30.73,30.73,0,0,1,.88,8.16c.06,3.23,2.71,6.64,3.76,6.49s.83-2.67,1.18-6.19,1.76-3.54,1.76-3.54Z" style="fill: rgb(255, 255, 255); transform-origin: 345.925px 119.724px;" id="elznttxb8vurk" class="animable"></path><g id="el1qyy20c6g08"><g style="opacity: 0.9; transform-origin: 355.705px 116.63px;" class="animable"><polygon points="353.08 125.23 343.88 116.03 346.62 113.29 353.08 119.75 364.8 108.03 367.53 110.77 353.08 125.23" style="fill: rgb(64, 123, 255); transform-origin: 355.705px 116.63px;" id="elmy5svytmikg" class="animable"></polygon></g></g></g><g id="freepik--Shield--inject-9" class="animable" style="transform-origin: 250.04px 255px;"><path d="M343.84,178.92a212.5,212.5,0,0,1-26.65-4.62A202.73,202.73,0,0,1,250,144.75a202.73,202.73,0,0,1-67.19,29.55,212.5,212.5,0,0,1-26.65,4.62c0,.42,0,.82,0,1.24,0,82.51,37,140.07,93.88,185.09,56.86-45,93.88-102.58,93.88-185.09C343.88,179.74,343.84,179.34,343.84,178.92Z" style="fill: rgb(64, 123, 255); transform-origin: 250.04px 255px;" id="elxtcmwskbc57" class="animable"></path><path d="M332.14,189.1l-.17,3.43c-3,62.32-28.22,111.77-79.45,155.61L250,350.3l-2.52-2.16C196.24,304.29,171,254.84,168,192.53l-.17-3.42,3.38-.58c4.83-.83,9.64-1.82,14.29-2.94A215.32,215.32,0,0,0,248,159.91l2-1.24,2,1.24a215.32,215.32,0,0,0,62.44,25.68c4.68,1.13,9.49,2.11,14.29,2.94Z" style="fill: rgb(64, 123, 255); transform-origin: 249.985px 254.485px;" id="ela6ltp773oxm" class="animable"></path><g id="elanvnpuf0t29"><path d="M317.19,174.3A202.73,202.73,0,0,1,250,144.75h0v13.92h0l2,1.24a215.32,215.32,0,0,0,62.44,25.68c4.68,1.13,9.49,2.11,14.29,2.94l3.38.57-.16,3.43c-3,62.32-28.23,111.77-79.46,155.61L250,350.3h0v14.95h0c56.86-45,93.88-102.58,93.88-185.09,0-.42,0-.82,0-1.24A212.5,212.5,0,0,1,317.19,174.3Z" style="fill: rgb(255, 255, 255); opacity: 0.5; transform-origin: 296.94px 255px;" class="animable"></path></g><g id="el0hhajvlpr0d5"><path d="M332.14,189.1l-.17,3.43c-3,62.32-28.22,111.77-79.45,155.61L250,350.3l-2.52-2.16C196.24,304.29,171,254.84,168,192.53l-.17-3.42,3.38-.58c4.83-.83,9.64-1.82,14.29-2.94A215.32,215.32,0,0,0,248,159.91l2-1.24,2,1.24a215.32,215.32,0,0,0,62.44,25.68c4.68,1.13,9.49,2.11,14.29,2.94Z" style="fill: rgb(255, 255, 255); opacity: 0.3; transform-origin: 249.985px 254.485px;" class="animable"></path></g></g><g id="freepik--Foam--inject-9" class="animable" style="transform-origin: 255.425px 158.991px;"><path d="M249.67,161.81a6.28,6.28,0,0,0-2.41.48,3.87,3.87,0,0,0,0-.48,6.32,6.32,0,0,0-4.72-6.11,6.33,6.33,0,0,0-4.55-9.17A7.08,7.08,0,0,0,228,144a15.3,15.3,0,0,0-23.77,4.65,6.9,6.9,0,0,0-1.65-.2,7.06,7.06,0,0,0-6,3.42,6.33,6.33,0,0,0-10.12,7.39,7.05,7.05,0,0,0-4.68,2.7,6.34,6.34,0,1,0-.55,7.82,7.06,7.06,0,0,0,11.65,1,7.06,7.06,0,0,0,11.16-.21,11.67,11.67,0,0,0,14.91.29c.52,0,1-.1,1.54-.18a11.66,11.66,0,0,0,13.29,1.19,6.32,6.32,0,0,0,10.58-.34,6.33,6.33,0,1,0,5.4-9.63Z" style="fill: rgb(64, 123, 255); transform-origin: 213.143px 157.385px;" id="elv3vnh525klp" class="animable"></path><g id="elaiuvpbfgfs"><path d="M249.67,161.81a6.28,6.28,0,0,0-2.41.48,3.87,3.87,0,0,0,0-.48,6.32,6.32,0,0,0-4.72-6.11,6.33,6.33,0,0,0-4.55-9.17A7.08,7.08,0,0,0,228,144a15.3,15.3,0,0,0-23.77,4.65,6.9,6.9,0,0,0-1.65-.2,7.06,7.06,0,0,0-6,3.42,6.33,6.33,0,0,0-10.12,7.39,7.05,7.05,0,0,0-4.68,2.7,6.34,6.34,0,1,0-.55,7.82,7.06,7.06,0,0,0,11.65,1,7.06,7.06,0,0,0,11.16-.21,11.67,11.67,0,0,0,14.91.29c.52,0,1-.1,1.54-.18a11.66,11.66,0,0,0,13.29,1.19,6.32,6.32,0,0,0,10.58-.34,6.33,6.33,0,1,0,5.4-9.63Z" style="fill: rgb(255, 255, 255); opacity: 0.9; transform-origin: 213.143px 157.385px;" class="animable"></path></g><path d="M243,172.23a6.84,6.84,0,0,1-5.59-2.91A12.63,12.63,0,0,1,223,168c-.54.09-1.1.15-1.66.19a12.61,12.61,0,0,1-16.08-.32,7.63,7.63,0,0,1-12,.24,7.63,7.63,0,0,1-12.56-1,6.81,6.81,0,0,1-10.46-.43,6.33,6.33,0,0,0,10.9,3,7.06,7.06,0,0,0,11.65,1,7.06,7.06,0,0,0,11.16-.21,11.67,11.67,0,0,0,14.91.29c.52,0,1-.1,1.54-.18a11.66,11.66,0,0,0,13.29,1.19,6.3,6.3,0,0,0,10.05.39A6.83,6.83,0,0,1,243,172.23Z" style="fill: rgb(64, 123, 255); transform-origin: 206.99px 170.576px;" id="el8fup31drldg" class="animable"></path><path d="M248.76,169a6.85,6.85,0,0,1-4.1,3,6.31,6.31,0,0,0,9.85.22A6.84,6.84,0,0,1,248.76,169Z" style="fill: rgb(64, 123, 255); transform-origin: 249.585px 171.739px;" id="el74whrwrr8km" class="animable"></path><g id="eledhoww0ctk"><g style="opacity: 0.7; transform-origin: 212.375px 170.579px;" class="animable"><path d="M243,172.23a6.84,6.84,0,0,1-5.59-2.91A12.63,12.63,0,0,1,223,168c-.54.09-1.1.15-1.66.19a12.61,12.61,0,0,1-16.08-.32,7.63,7.63,0,0,1-12,.24,7.63,7.63,0,0,1-12.56-1,6.81,6.81,0,0,1-10.46-.43,6.33,6.33,0,0,0,10.9,3,7.06,7.06,0,0,0,11.65,1,7.06,7.06,0,0,0,11.16-.21,11.67,11.67,0,0,0,14.91.29c.52,0,1-.1,1.54-.18a11.66,11.66,0,0,0,13.29,1.19,6.3,6.3,0,0,0,10.05.39A6.83,6.83,0,0,1,243,172.23Z" style="fill: rgb(255, 255, 255); transform-origin: 206.99px 170.576px;" id="eli0znm3ntyo" class="animable"></path><path d="M248.76,169a6.85,6.85,0,0,1-4.1,3,6.31,6.31,0,0,0,9.85.22A6.84,6.84,0,0,1,248.76,169Z" style="fill: rgb(255, 255, 255); transform-origin: 249.585px 171.739px;" id="elrt94zlxxhba" class="animable"></path></g></g><path d="M277.72,167.73a5,5,0,0,1,1.9.38c0-.12,0-.25,0-.38a5,5,0,0,1,3.73-4.83,5,5,0,0,1,3.59-7.25,5.61,5.61,0,0,1,8-2,12.11,12.11,0,0,1,18.8,3.68,5.51,5.51,0,0,1,1.3-.16,5.57,5.57,0,0,1,4.78,2.7,5,5,0,0,1,8,5.85,5.64,5.64,0,0,1,3.71,2.13,5,5,0,1,1,.43,6.19,5.59,5.59,0,0,1-9.21.75,5.59,5.59,0,0,1-8.83-.17,9.21,9.21,0,0,1-11.79.23,9.9,9.9,0,0,1-1.22-.14,9.21,9.21,0,0,1-10.51.94,5,5,0,0,1-8.36-.26,5,5,0,1,1-4.26-7.62Z" style="fill: rgb(64, 123, 255); transform-origin: 306.719px 164.216px;" id="elarj1o3uvf5c" class="animable"></path><g id="elm9rol43tymn"><path d="M277.72,167.73a5,5,0,0,1,1.9.38c0-.12,0-.25,0-.38a5,5,0,0,1,3.73-4.83,5,5,0,0,1,3.59-7.25,5.61,5.61,0,0,1,8-2,12.11,12.11,0,0,1,18.8,3.68,5.51,5.51,0,0,1,1.3-.16,5.57,5.57,0,0,1,4.78,2.7,5,5,0,0,1,8,5.85,5.64,5.64,0,0,1,3.71,2.13,5,5,0,1,1,.43,6.19,5.59,5.59,0,0,1-9.21.75,5.59,5.59,0,0,1-8.83-.17,9.21,9.21,0,0,1-11.79.23,9.9,9.9,0,0,1-1.22-.14,9.21,9.21,0,0,1-10.51.94,5,5,0,0,1-8.36-.26,5,5,0,1,1-4.26-7.62Z" style="fill: rgb(255, 255, 255); opacity: 0.9; transform-origin: 306.719px 164.216px;" class="animable"></path></g><path d="M283,176a5.39,5.39,0,0,0,4.42-2.3,9.93,9.93,0,0,0,11.32-1,9.7,9.7,0,0,0,1.32.15,9.94,9.94,0,0,0,12.71-.24,6,6,0,0,0,9.51.18,6,6,0,0,0,9.94-.82,5.36,5.36,0,0,0,8.26-.34A5,5,0,0,1,331.9,174a5.59,5.59,0,0,1-9.21.75,5.59,5.59,0,0,1-8.83-.17,9.21,9.21,0,0,1-11.79.23,9.9,9.9,0,0,1-1.22-.14,9.21,9.21,0,0,1-10.51.94,5,5,0,0,1-7.94.32C282.61,176,282.82,176,283,176Z" style="fill: rgb(64, 123, 255); transform-origin: 311.44px 174.684px;" id="elooq3rtfmda" class="animable"></path><path d="M278.43,173.38a5.42,5.42,0,0,0,3.24,2.41,5,5,0,0,1-7.78.17A5.39,5.39,0,0,0,278.43,173.38Z" style="fill: rgb(64, 123, 255); transform-origin: 277.78px 175.558px;" id="el66bz7kv6r42" class="animable"></path><g id="el2mex4asx2z4"><g style="opacity: 0.7; transform-origin: 307.185px 174.684px;" class="animable"><path d="M283,176a5.39,5.39,0,0,0,4.42-2.3,9.93,9.93,0,0,0,11.32-1,9.7,9.7,0,0,0,1.32.15,9.94,9.94,0,0,0,12.71-.24,6,6,0,0,0,9.51.18,6,6,0,0,0,9.94-.82,5.36,5.36,0,0,0,8.26-.34A5,5,0,0,1,331.9,174a5.59,5.59,0,0,1-9.21.75,5.59,5.59,0,0,1-8.83-.17,9.21,9.21,0,0,1-11.79.23,9.9,9.9,0,0,1-1.22-.14,9.21,9.21,0,0,1-10.51.94,5,5,0,0,1-7.94.32C282.61,176,282.82,176,283,176Z" style="fill: rgb(255, 255, 255); transform-origin: 311.44px 174.684px;" id="els99488ekcni" class="animable"></path><path d="M278.43,173.38a5.42,5.42,0,0,0,3.24,2.41,5,5,0,0,1-7.78.17A5.39,5.39,0,0,0,278.43,173.38Z" style="fill: rgb(255, 255, 255); transform-origin: 277.78px 175.558px;" id="el05l34whm4mo9" class="animable"></path></g></g></g><g id="freepik--Tooth--inject-9" class="animable" style="transform-origin: 248.267px 254.503px;"><path d="M248.25,318.3s.53,14.7,8.88,14.7,16.69-41.73,16.69-41.73V261.45l-14.31-6.95L248.25,273,244,300.81Z" style="fill: rgb(64, 123, 255); transform-origin: 258.91px 293.75px;" id="elp2pcekhae7" class="animable"></path><g id="elo3wtgx1bisq"><path d="M248.25,318.3s.53,14.7,8.88,14.7,16.69-41.73,16.69-41.73V261.45l-14.31-6.95L248.25,273,244,300.81Z" style="fill: rgb(255, 255, 255); opacity: 0.7; transform-origin: 258.91px 293.75px;" class="animable"></path></g><g id="el54yn0gh7xxv"><path d="M248.25,318.3s.53,14.7,8.88,14.7,16.69-41.73,16.69-41.73V261.45l-14.31-6.95L248.25,273,244,300.81Z" style="opacity: 0.2; transform-origin: 258.91px 293.75px;" class="animable"></path></g><path d="M194.92,264.63c-1,13.28-3.58,29.22,8.94,52.47s26.24,20.28,22.06-5.36c0,0,4.18,23.85,17.29,23.85s10.14-59,19.68-59,0,59,13.71,59,28.62-31.6,25.64-56,0-36.37,9.54-51.87,10.55-56.81-17.29-52.47c-5.11.8-20.27,4.17-20.27,4.17s-11.93-8.94-25-1.78c0,0-14.91-10.14-29.82,1.19,0,0-20.86-11.93-33.39,1.79s-6.55,37.56,0,49.48S196,249.18,194.92,264.63Z" style="fill: rgb(64, 123, 255); transform-origin: 248.267px 254.528px;" id="ellk7r17mcs1r" class="animable"></path><g id="elvfovp9mdf3o"><path d="M194.92,264.63c-1,13.28-3.58,29.22,8.94,52.47s26.24,20.28,22.06-5.36c0,0,4.18,23.85,17.29,23.85s10.14-59,19.68-59,0,59,13.71,59,28.62-31.6,25.64-56,0-36.37,9.54-51.87,10.55-56.81-17.29-52.47c-5.11.8-20.27,4.17-20.27,4.17s-11.93-8.94-25-1.78c0,0-14.91-10.14-29.82,1.19,0,0-20.86-11.93-33.39,1.79s-6.55,37.56,0,49.48S196,249.18,194.92,264.63Z" style="fill: rgb(255, 255, 255); opacity: 0.8; transform-origin: 248.267px 254.528px;" class="animable"></path></g><g id="elv0v7h5m62qe"><g style="opacity: 0.1; transform-origin: 215.81px 300.598px;" class="animable"><path d="M205.05,276.16c-1,9,4.76,45.11,12.3,56.18,6.76,2.66,11.19-4.5,8.57-20.6,0,0-4.17-15.31-7.35-31.21S206.25,265.43,205.05,276.16Z" id="el2k9g2qhx22p" class="animable" style="transform-origin: 215.81px 300.598px;"></path><path d="M225.92,311.74s.09.5.28,1.34C226,312.24,225.92,311.74,225.92,311.74Z" id="eltvnz5hp5r8" class="animable" style="transform-origin: 226.06px 312.41px;"></path></g></g><g id="elwxzff5p5ev"><path d="M268.65,270.2c-6.75-3.18-10.28,12.73-10.28,12.73,1.15-3.91,2.57-6.37,4.52-6.37,9.54,0,0,59,13.71,59C268.25,335.59,275.41,273.38,268.65,270.2Z" style="opacity: 0.1; transform-origin: 267.485px 302.67px;" class="animable"></path></g><g id="eln2mu2ykfg4"><path d="M294.49,175.2c-5.11.8-20.27,4.17-20.27,4.17s-11.93-8.94-25-1.78c0,0-14.91-10.14-29.82,1.19,0,0-20.86-11.93-33.39,1.79-7.48,8.19-8.36,20-6.45,30.74,0,0,5.26,17.95,19.57,14.37s23.85,0,59.82,7.55,49.67,1.65,56.34-13.48C321,201.4,318.4,171.48,294.49,175.2Z" style="fill: rgb(255, 255, 255); opacity: 0.4; transform-origin: 248.271px 204.962px;" class="animable"></path></g><path d="M228.62,298.53a2.67,2.67,0,0,1-3.2-2.08c-3.06-15.2-3.68-27.65-4.22-38.7-.19-3.82-.37-7.48-.65-10.91A2.68,2.68,0,0,1,223,244h0a2.7,2.7,0,0,1,2.95,2.48c.28,3.5.46,7.19.65,11,.54,10.85,1.14,23.08,4.12,37.87a2.7,2.7,0,0,1-2.07,3.18Z" style="fill: rgb(64, 123, 255); transform-origin: 225.66px 271.291px;" id="elsss3skt64r" class="animable"></path><path d="M216.79,226.55a73.15,73.15,0,0,1-.64-30.06,2.83,2.83,0,0,1,3.52-2.21h0a2.82,2.82,0,0,1,2.06,3.24c-.9,4.88-2.33,16,.56,27.67a2.83,2.83,0,0,1-1.92,3.39h0A2.84,2.84,0,0,1,216.79,226.55Z" style="fill: rgb(64, 123, 255); transform-origin: 218.633px 211.442px;" id="el5hemtd6uq8l" class="animable"></path><g id="elt7w80iw5as"><g style="opacity: 0.9; transform-origin: 225.66px 271.291px;" class="animable"><path d="M228.62,298.53a2.67,2.67,0,0,1-3.2-2.08c-3.06-15.2-3.68-27.65-4.22-38.7-.19-3.82-.37-7.48-.65-10.91A2.68,2.68,0,0,1,223,244h0a2.7,2.7,0,0,1,2.95,2.48c.28,3.5.46,7.19.65,11,.54,10.85,1.14,23.08,4.12,37.87a2.7,2.7,0,0,1-2.07,3.18Z" style="fill: rgb(255, 255, 255); transform-origin: 225.66px 271.291px;" id="el4lxmiap6b5p" class="animable"></path></g></g><g id="el9t4bwdmflh6"><g style="opacity: 0.9; transform-origin: 218.633px 211.442px;" class="animable"><path d="M216.79,226.55a73.15,73.15,0,0,1-.64-30.06,2.83,2.83,0,0,1,3.52-2.21h0a2.82,2.82,0,0,1,2.06,3.24c-.9,4.88-2.33,16,.56,27.67a2.83,2.83,0,0,1-1.92,3.39h0A2.84,2.84,0,0,1,216.79,226.55Z" style="fill: rgb(255, 255, 255); transform-origin: 218.633px 211.442px;" id="elevy9fbya8mr" class="animable"></path></g></g><g id="elhbnp34uf4hp"><path d="M208.43,174.75a5.05,5.05,0,0,0-1.79,7.6c3.43,3.68,12.72-3.57,12.72-3.57A42.79,42.79,0,0,0,208.43,174.75Z" style="opacity: 0.1; transform-origin: 212.482px 179.071px;" class="animable"></path></g><g id="elmmrbamg3m1"><path d="M288.92,179.07c-6,1.3-14.7.3-14.7.3s-11.93-8.94-25-1.78a52.8,52.8,0,0,0,24.64,5.81C288.53,183.4,294.89,177.78,288.92,179.07Z" style="opacity: 0.1; transform-origin: 270.184px 179.107px;" class="animable"></path></g></g><g id="freepik--Character--inject-9" class="animable" style="transform-origin: 346.102px 267.747px;"><polygon points="315.63 403.23 308.51 400.55 312.71 383.3 319.83 385.99 315.63 403.23" style="fill: rgb(127, 62, 59); transform-origin: 314.17px 393.265px;" id="el3yz4qxlpjlv" class="animable"></polygon><path d="M307.89,399.37l8.68,3.27a.68.68,0,0,1,.43.72l-.92,6.88a1.11,1.11,0,0,1-1.51.88c-2.77-1.1-4.75-2-8.27-3.36-2.16-.82-8.77-3.05-11.75-4.18s-2.3-4.24-1-4.05c5.93.87,10.67.77,13-.16A1.87,1.87,0,0,1,307.89,399.37Z" style="fill: rgb(38, 50, 56); transform-origin: 304.724px 405.222px;" id="elyb4v3dqu8m" class="animable"></path><path d="M305.08,399.73a2.36,2.36,0,0,1-1.24-.88,1.13,1.13,0,0,1,0-1,.58.58,0,0,1,.47-.37c.93-.11,2.71,2.18,2.91,2.44a.18.18,0,0,1,0,.2.17.17,0,0,1-.17.09A9.07,9.07,0,0,1,305.08,399.73Zm-.52-1.88a.66.66,0,0,0-.23,0c-.05,0-.12,0-.18.16a.75.75,0,0,0,0,.7,3.71,3.71,0,0,0,2.48,1.09A7.37,7.37,0,0,0,304.56,397.85Z" style="fill: rgb(64, 123, 255); transform-origin: 305.487px 398.844px;" id="ellv1pxvw2ko" class="animable"></path><path d="M307,400.17l-.08-.05c-.59-.68-1.44-2.79-1-3.53a.59.59,0,0,1,.7-.24,1,1,0,0,1,.64.49c.58,1,0,3.12,0,3.21a.18.18,0,0,1-.13.12Zm-.38-3.44-.08,0c-.23-.06-.29,0-.31.07-.26.44.21,2,.74,2.8a4.38,4.38,0,0,0,0-2.56A.62.62,0,0,0,306.62,396.73Z" style="fill: rgb(64, 123, 255); transform-origin: 306.658px 398.242px;" id="el8fg20r1mr6m" class="animable"></path><g id="elpqbqus2kvbn"><polygon points="310.16 393.79 317.57 395.25 319.74 386.36 312.32 384.9 310.16 393.79" style="opacity: 0.2; transform-origin: 314.95px 390.075px;" class="animable"></polygon></g><path d="M350.76,231.31s-17.7,63-23.35,84.31c-5,18.85-18.59,73.23-18.59,73.23l13,2.78s17.52-53.39,23.57-71.11c7.2-21.06,30.44-84,30.44-84Z" style="fill: rgb(38, 50, 56); transform-origin: 342.325px 311.47px;" id="elk3bni7kgjgq" class="animable"></path><polygon points="307.63 390.44 322.89 393.11 324.19 388.5 307.75 384.8 307.63 390.44" style="fill: rgb(64, 123, 255); transform-origin: 315.91px 388.955px;" id="elw9oa0wzgiw8" class="animable"></polygon><g id="eljgw7ozvlxmo"><path d="M369.53,253.68l-.32-5.43L365.05,245s-7.9,23.52-9.63,47.32C360.22,279.08,365.52,264.58,369.53,253.68Z" style="opacity: 0.5; transform-origin: 362.475px 268.66px;" class="animable"></path></g><polygon points="382.27 404.69 374.67 404.69 372.51 387.08 380.12 387.08 382.27 404.69" style="fill: rgb(127, 62, 59); transform-origin: 377.39px 395.885px;" id="elt162vnf7pap" class="animable"></polygon><path d="M373.67,403.81h9.27a.69.69,0,0,1,.66.52l1.57,6.76a1.11,1.11,0,0,1-1.1,1.36c-3-.05-5.17-.23-8.93-.23-2.31,0-9.28.24-12.47.24S359,409.3,360.33,409c5.85-1.28,10.25-3,12.11-4.74A1.83,1.83,0,0,1,373.67,403.81Z" style="fill: rgb(38, 50, 56); transform-origin: 372.418px 408.135px;" id="el538s4lw9oil" class="animable"></path><path d="M371.17,405.14a2.31,2.31,0,0,1-1.47-.39,1.09,1.09,0,0,1-.39-.95.58.58,0,0,1,.31-.51c.83-.43,3.3,1.08,3.58,1.25a.19.19,0,0,1,.09.18.19.19,0,0,1-.14.15A8.69,8.69,0,0,1,371.17,405.14ZM370,403.57a.53.53,0,0,0-.23,0,.22.22,0,0,0-.12.21.76.76,0,0,0,.26.66,3.67,3.67,0,0,0,2.7.13A7.52,7.52,0,0,0,370,403.57Z" style="fill: rgb(64, 123, 255); transform-origin: 371.298px 404.18px;" id="eljlksfscgy9b" class="animable"></path><path d="M373.11,404.87a.15.15,0,0,1-.09,0c-.79-.43-2.33-2.09-2.17-2.94a.57.57,0,0,1,.57-.47,1,1,0,0,1,.77.23c.89.72,1.09,2.92,1.1,3a.18.18,0,0,1-.08.16A.19.19,0,0,1,373.11,404.87Zm-1.57-3.08h-.08c-.23,0-.25.14-.26.19-.09.5.89,1.76,1.68,2.35A4.33,4.33,0,0,0,372,402,.63.63,0,0,0,371.54,401.79Z" style="fill: rgb(64, 123, 255); transform-origin: 372.064px 403.165px;" id="eljpm0oqeokq" class="animable"></path><g id="elrwmgmz1logn"><polygon points="372.57 387.58 373.79 397.51 381.39 397.51 380.18 387.58 372.57 387.58" style="opacity: 0.2; transform-origin: 376.98px 392.545px;" class="animable"></polygon></g><path d="M363.94,234.08s-.06,62-.35,84.31c-.31,24.44,6.5,76,6.5,76H384s-2.79-46.89-.94-71.11c1.17-15.23,5-43.62,6.44-62.3,1.15-14.51.17-21.69.17-21.69Z" style="fill: rgb(38, 50, 56); transform-origin: 376.819px 314.235px;" id="el3p0lp386t1v" class="animable"></path><polygon points="368.42 394.7 384.83 394.7 384.78 389.8 367.65 388.81 368.42 394.7" style="fill: rgb(64, 123, 255); transform-origin: 376.24px 391.755px;" id="elu0o21tp5pkm" class="animable"></polygon><path d="M366,177.8c-2.34,3.55-4.73,7.1-7.14,10.61l-7.24,10.51c-1.18,1.75-2.4,3.49-3.53,5.21a15.69,15.69,0,0,1-2.95,3.35,10.19,10.19,0,0,1-4.8,2.28,9.78,9.78,0,0,1-5.12-.51,13.37,13.37,0,0,1-3.68-2.15,17.81,17.81,0,0,1-2.68-2.67,21.87,21.87,0,0,1-2.11-3l3.93-3c.68.52,1.49,1.18,2.26,1.68a17.31,17.31,0,0,0,2.34,1.31c1.53.73,2.89.8,3.29.43a3,3,0,0,0,.77-.72,12.18,12.18,0,0,0,1-1.66c1.1-1.93,2.18-3.8,3.31-5.65q3.36-5.53,6.87-10.93c2.34-3.6,4.73-7.15,7.19-10.68Z" style="fill: rgb(128, 62, 60); transform-origin: 346.375px 191.053px;" id="el0t00jrh8a91m" class="animable"></path><path d="M370.31,172.87c1.11,6.47-13.76,21.85-13.76,21.85l-12-10a82.43,82.43,0,0,1,10.79-14.15C361.42,164.43,369.09,165.77,370.31,172.87Z" style="fill: rgb(64, 123, 255); transform-origin: 357.46px 180.691px;" id="el5d05b8vhmxu" class="animable"></path><g id="el7azftonjeyv"><path d="M370.31,172.87c1.11,6.47-13.76,21.85-13.76,21.85l-12-10a82.43,82.43,0,0,1,10.79-14.15C361.42,164.43,369.09,165.77,370.31,172.87Z" style="fill: rgb(255, 255, 255); opacity: 0.7; transform-origin: 357.46px 180.691px;" class="animable"></path></g><g id="eli31tkqdydwr"><path d="M360.88,180.37c-3.49,1.1-7.72,6.28-8.79,10.64l4.46,3.71a103.32,103.32,0,0,0,9.79-11.94C365.53,181.07,364.88,179.11,360.88,180.37Z" style="opacity: 0.2; transform-origin: 359.215px 187.344px;" class="animable"></path></g><path d="M404.51,174.87a169.87,169.87,0,0,0-7.8,24.21c-1.42,5.76-2.52,11.29-3.4,16.32a228.11,228.11,0,0,0-2.69,23.89l-40.83-8.07s4.17-17.45,5.06-24.66c3.31-26.87,7.79-39.79,7.79-39.79a80.42,80.42,0,0,1,9.77.07c.69,0,1.39.12,2.09.19a149.38,149.38,0,0,1,17,3.44c1.06.27,2.13.57,3.17.88C399.93,172.93,404.51,174.87,404.51,174.87Z" style="fill: rgb(64, 123, 255); transform-origin: 377.15px 202.972px;" id="elru8paq0abwe" class="animable"></path><g id="el3tmxntlhtb4"><g style="opacity: 0.7; transform-origin: 377.15px 202.972px;" class="animable"><path d="M404.51,174.87a169.87,169.87,0,0,0-7.8,24.21c-1.42,5.76-2.52,11.29-3.4,16.32a228.11,228.11,0,0,0-2.69,23.89l-40.83-8.07s4.17-17.45,5.06-24.66c3.31-26.87,7.79-39.79,7.79-39.79a80.42,80.42,0,0,1,9.77.07c.69,0,1.39.12,2.09.19a149.38,149.38,0,0,1,17,3.44c1.06.27,2.13.57,3.17.88C399.93,172.93,404.51,174.87,404.51,174.87Z" style="fill: rgb(255, 255, 255); transform-origin: 377.15px 202.972px;" id="elp6braepm46m" class="animable"></path></g></g><g id="el22kqxuurjqh"><path d="M401.5,182.83,400.18,180l-5.11,4.22s-2.5,12,0,22.07c.5-2.34,1-4.73,1.63-7.18C398,193.79,399.6,188.3,401.5,182.83Z" style="opacity: 0.2; transform-origin: 397.729px 193.145px;" class="animable"></path></g><path d="M393.46,151c-2.12,5.24-5.11,15-2,19.45A17.16,17.16,0,0,1,377.39,173c-4.68-1.06-4.28-4.39-2.89-6,6.37-.22,7.08-4.77,6.84-9.23Z" style="fill: rgb(127, 62, 59); transform-origin: 383.514px 162.268px;" id="elpg6v8964ddf" class="animable"></path><g id="elb74m20hqptl"><path d="M388.52,153.79l-7.18,4a17.06,17.06,0,0,1,0,3.12c2.39.13,6.07-1.77,6.79-4.16A8.23,8.23,0,0,0,388.52,153.79Z" style="opacity: 0.2; transform-origin: 384.935px 157.353px;" class="animable"></path></g><path d="M397.07,144.53c-2.77,7-4,11.26-8.85,13.72-7.23,3.7-15-2.56-14.36-10.28.56-6.95,5-17.25,12.93-17.74A10.41,10.41,0,0,1,397.07,144.53Z" style="fill: rgb(127, 62, 59); transform-origin: 385.827px 144.777px;" id="el1yaqjsfwsam" class="animable"></path><path d="M381,141.66a21.15,21.15,0,0,1-4.4,3.85,3.6,3.6,0,0,0,2.61,1.4Z" style="fill: rgb(99, 15, 15); transform-origin: 378.8px 144.285px;" id="el0k9hh32zzh9" class="animable"></path><path d="M388.3,141.43a.37.37,0,0,1-.28-.24,2.94,2.94,0,0,0-1.81-1.88.37.37,0,0,1-.26-.44.35.35,0,0,1,.43-.26A3.61,3.61,0,0,1,388.7,141a.35.35,0,0,1-.22.46A.37.37,0,0,1,388.3,141.43Z" style="fill: rgb(38, 50, 56); transform-origin: 387.332px 140.03px;" id="el2ii6b8qknzj" class="animable"></path><path d="M376.9,137.44a.37.37,0,0,1-.19-.61,3.57,3.57,0,0,1,3.09-1.1.37.37,0,0,1,.28.43.36.36,0,0,1-.42.28,2.74,2.74,0,0,0-2.43.9A.37.37,0,0,1,376.9,137.44Z" style="fill: rgb(38, 50, 56); transform-origin: 378.35px 136.572px;" id="eleswj22rkyve" class="animable"></path><path d="M330.65,198.11l-5.06-4.8-2.39,7.36s4.78,4,6.74,1.47Z" style="fill: rgb(127, 62, 59); transform-origin: 326.925px 198.144px;" id="elwp2m9u4t8cs" class="animable"></path><polygon points="318.83 191.85 318.93 198.88 323.2 200.67 325.59 193.31 318.83 191.85" style="fill: rgb(127, 62, 59); transform-origin: 322.21px 196.26px;" id="eleky5b8mzm4u" class="animable"></polygon><path d="M379,148.64a38.38,38.38,0,0,1,7.22.63c-.85,1.5-2.2,2.62-4.9,2.19A2.49,2.49,0,0,1,379,148.64Z" style="fill: rgb(38, 50, 56); transform-origin: 382.599px 150.096px;" id="elnlrs60zsyi" class="animable"></path><path d="M382.76,150.4a5,5,0,0,0-3.05.33,2.85,2.85,0,0,0,1.61.73,4.86,4.86,0,0,0,3.05-.33A2.88,2.88,0,0,0,382.76,150.4Z" style="fill: rgb(160, 39, 36); transform-origin: 382.04px 150.933px;" id="el14ic64pmk4n" class="animable"></path><path d="M379.25,148.63a1.11,1.11,0,0,0,.71.91,27.73,27.73,0,0,0,4.73.3,1.52,1.52,0,0,0,1.31-.6A45.07,45.07,0,0,0,379.25,148.63Z" style="fill: rgb(255, 255, 255); transform-origin: 382.625px 149.238px;" id="elei6zgnve88e" class="animable"></path><path d="M382.62,131.84s-.09-4.16,2.27-6.13,3.18.29,3.18.29,2.24-3.52,5.13-2.89,2.45,2.71,2.45,2.71,3.56-1.72,5.06-.28-1.62,4.45-1,5,10.46-1,5.14,6.28c0,0,5.5.86,1.57,4.81,0,0,4.06,3.9-2.54,4.46,0,0,3.75,3.87-6,3.12l-3.33-5.15-1-5.49-3-3.43-3.58-2.23Z" style="fill: rgb(38, 50, 56); transform-origin: 395.228px 136.17px;" id="el3ihakneccu6" class="animable"></path><path d="M393.07,149.24s1.1-6.12-4.31-12.27a2.73,2.73,0,0,1,.72-4.21h0a2.7,2.7,0,0,1,3.26.52c2.17,2.35,5.69,7.59,4.21,15.79Z" style="fill: rgb(64, 123, 255); transform-origin: 392.685px 140.835px;" id="el0ccjcizxg6j" class="animable"></path><g id="elsun56k7r8nl"><path d="M393.07,149.24s1.1-6.12-4.31-12.27a2.73,2.73,0,0,1,.72-4.21h0a2.7,2.7,0,0,1,3.26.52c2.17,2.35,5.69,7.59,4.21,15.79Z" style="fill: rgb(255, 255, 255); opacity: 0.5; transform-origin: 392.685px 140.835px;" class="animable"></path></g><path d="M397.89,151.4a7.11,7.11,0,0,1-4.66,2.84c-2.48.37-3.42-1.94-2.48-4.13.84-2,3.15-4.53,5.52-3.89A3.25,3.25,0,0,1,397.89,151.4Z" style="fill: rgb(127, 62, 59); transform-origin: 394.508px 150.199px;" id="elaprzlri19v8" class="animable"></path><g id="eln4bx2kayx6"><path d="M391.06,135.94l.05,0a2.27,2.27,0,0,0,.62-3.3,2.7,2.7,0,0,0-3.57,3.22l1,.31A2.28,2.28,0,0,0,391.06,135.94Z" style="opacity: 0.1; transform-origin: 390.128px 134.372px;" class="animable"></path></g><path d="M385.71,142.86c-.2.59-.68,1-1.07.84s-.54-.72-.34-1.32.68-1,1.07-.84S385.91,142.26,385.71,142.86Z" style="fill: rgb(38, 50, 56); transform-origin: 385.005px 142.62px;" id="eld8gbl5unr8" class="animable"></path><path d="M379,140.59c-.2.6-.68,1-1.07.84s-.54-.72-.34-1.32.68-1,1.07-.84S379.16,140,379,140.59Z" style="fill: rgb(38, 50, 56); transform-origin: 378.286px 140.35px;" id="eldghhiktxgrl" class="animable"></path><path d="M378.78,139.36l-1.3-.9S377.84,139.83,378.78,139.36Z" style="fill: rgb(38, 50, 56); transform-origin: 378.13px 138.959px;" id="elx7u1kjxfk7" class="animable"></path><path d="M385.53,141.63l-1.3-.9S384.59,142.1,385.53,141.63Z" style="fill: rgb(38, 50, 56); transform-origin: 384.88px 141.229px;" id="elfa2kmnpyw9r" class="animable"></path><path d="M390,131.5a14.11,14.11,0,0,0-7.32-.16,12.09,12.09,0,0,0-4.14,3.77h.08c.89-.83,3.41-2,10.05.25a2,2,0,0,0,1.74-.18l0,0A2,2,0,0,0,390,131.5Z" style="fill: rgb(64, 123, 255); transform-origin: 384.997px 133.207px;" id="elev1sllq40xf" class="animable"></path><g id="else3z6ftky2"><path d="M390,131.5a14.11,14.11,0,0,0-7.32-.16,12.09,12.09,0,0,0-4.14,3.77h.08c.89-.83,3.41-2,10.05.25a2,2,0,0,0,1.74-.18l0,0A2,2,0,0,0,390,131.5Z" style="fill: rgb(255, 255, 255); opacity: 0.7; transform-origin: 384.997px 133.207px;" class="animable"></path></g><path d="M276.35,176.86c-1.2,2.34-2.11,2.59-2.88,2.19s-1.09-1.27.1-3.61,8.23-14.53,9-14.14S277.55,174.52,276.35,176.86Z" style="fill: rgb(38, 50, 56); transform-origin: 277.711px 170.248px;" id="el1lsneymyosy" class="animable"></path><g id="el89azdfmyy3r"><path d="M276.35,176.86c-1.2,2.34-2.11,2.59-2.88,2.19s-1.09-1.27.1-3.61,8.23-14.53,9-14.14S277.55,174.52,276.35,176.86Z" style="fill: rgb(255, 255, 255); opacity: 0.6; transform-origin: 277.711px 170.248px;" class="animable"></path></g><g id="eln95gejw7zq"><path d="M273.1,178.77a6.18,6.18,0,0,1,.78-2.3c1.06-2.07,6.71-11.9,8.51-13.82.24-.78.32-1.28.18-1.35-.77-.39-7.8,11.8-9,14.14C272.6,177.34,272.64,178.28,273.1,178.77Z" style="fill: rgb(255, 255, 255); opacity: 0.9; transform-origin: 277.713px 170.03px;" class="animable"></path></g><path d="M273.57,175.44c-1.19,2.34-2.11,2.58-2.87,2.19s-1.1-1.28.09-3.61,8.23-14.54,9-14.14S274.77,173.1,273.57,175.44Z" style="fill: rgb(38, 50, 56); transform-origin: 274.936px 168.826px;" id="eldmu2v8bfesp" class="animable"></path><g id="el8gi23dc1xru"><path d="M273.57,175.44c-1.19,2.34-2.11,2.58-2.87,2.19s-1.1-1.28.09-3.61,8.23-14.54,9-14.14S274.77,173.1,273.57,175.44Z" style="fill: rgb(255, 255, 255); opacity: 0.6; transform-origin: 274.936px 168.826px;" class="animable"></path></g><g id="elkb2fdr0j93"><path d="M270.32,177.35a6.13,6.13,0,0,1,.78-2.3c1.06-2.08,6.71-11.9,8.51-13.82.24-.78.32-1.28.18-1.35-.77-.4-7.8,11.8-9,14.14C269.82,175.91,269.86,176.85,270.32,177.35Z" style="fill: rgb(255, 255, 255); opacity: 0.9; transform-origin: 274.933px 168.61px;" class="animable"></path></g><path d="M270.79,174c-1.19,2.33-2.1,2.58-2.87,2.19s-1.1-1.28.1-3.62,8.23-14.53,9-14.14S272,171.68,270.79,174Z" style="fill: rgb(38, 50, 56); transform-origin: 272.16px 167.381px;" id="el28aboo4p66" class="animable"></path><g id="el021vivqcthkg"><path d="M270.79,174c-1.19,2.33-2.1,2.58-2.87,2.19s-1.1-1.28.1-3.62,8.23-14.53,9-14.14S272,171.68,270.79,174Z" style="fill: rgb(255, 255, 255); opacity: 0.6; transform-origin: 272.16px 167.381px;" class="animable"></path></g><g id="eltukfp4j94xi"><path d="M267.54,175.93a6.16,6.16,0,0,1,.78-2.31c1.07-2.07,6.72-11.89,8.52-13.81.23-.78.32-1.28.17-1.36-.76-.39-7.8,11.81-9,14.14C267,174.49,267.08,175.43,267.54,175.93Z" style="fill: rgb(255, 255, 255); opacity: 0.9; transform-origin: 272.149px 167.185px;" class="animable"></path></g><path d="M268,172.59c-1.2,2.34-2.11,2.59-2.88,2.2s-1.1-1.28.1-3.62,8.23-14.53,9-14.14S269.21,170.26,268,172.59Z" style="fill: rgb(38, 50, 56); transform-origin: 269.36px 165.98px;" id="elgjrj67l89td" class="animable"></path><g id="elkn1x6k4rdlr"><path d="M268,172.59c-1.2,2.34-2.11,2.59-2.88,2.2s-1.1-1.28.1-3.62,8.23-14.53,9-14.14S269.21,170.26,268,172.59Z" style="fill: rgb(255, 255, 255); opacity: 0.6; transform-origin: 269.36px 165.98px;" class="animable"></path></g><g id="elo40i9dcy9ib"><path d="M264.76,174.51a6.22,6.22,0,0,1,.79-2.31c1.06-2.07,6.71-11.9,8.51-13.82.23-.78.32-1.28.18-1.35-.77-.39-7.8,11.8-9,14.14C264.27,173.07,264.3,174,264.76,174.51Z" style="fill: rgb(255, 255, 255); opacity: 0.9; transform-origin: 269.378px 165.765px;" class="animable"></path></g><path d="M265.24,171.17c-1.2,2.34-2.11,2.59-2.88,2.19s-1.09-1.28.1-3.61,8.23-14.54,9-14.14S266.44,168.83,265.24,171.17Z" style="fill: rgb(38, 50, 56); transform-origin: 266.601px 164.558px;" id="elusyekhmp2m9" class="animable"></path><g id="el55a4aoueeeo"><path d="M265.24,171.17c-1.2,2.34-2.11,2.59-2.88,2.19s-1.09-1.28.1-3.61,8.23-14.54,9-14.14S266.44,168.83,265.24,171.17Z" style="fill: rgb(255, 255, 255); opacity: 0.6; transform-origin: 266.601px 164.558px;" class="animable"></path></g><g id="el4quwbl9bcm5"><path d="M262,173.08a6.18,6.18,0,0,1,.78-2.3c1.06-2.08,6.71-11.9,8.51-13.82.24-.78.32-1.28.18-1.35-.77-.4-7.8,11.8-9,14.14C261.49,171.65,261.53,172.59,262,173.08Z" style="fill: rgb(255, 255, 255); opacity: 0.9; transform-origin: 266.609px 164.34px;" class="animable"></path></g><path d="M262.46,169.75c-1.19,2.33-2.11,2.58-2.87,2.19s-1.1-1.28.1-3.61,8.22-14.54,9-14.14S263.66,167.41,262.46,169.75Z" style="fill: rgb(64, 123, 255); transform-origin: 263.832px 163.135px;" id="elhd6fjfzgdua" class="animable"></path><g id="el4hp1t52ah17"><path d="M262.46,169.75c-1.19,2.33-2.11,2.58-2.87,2.19s-1.1-1.28.1-3.61,8.22-14.54,9-14.14S263.66,167.41,262.46,169.75Z" style="fill: rgb(255, 255, 255); opacity: 0.5; transform-origin: 263.832px 163.135px;" class="animable"></path></g><g id="elip8r2nssvxa"><path d="M259.21,171.66a6.07,6.07,0,0,1,.78-2.3c1.06-2.08,6.71-11.9,8.51-13.82.24-.78.32-1.28.18-1.35-.77-.4-7.8,11.8-9,14.14C258.71,170.22,258.75,171.16,259.21,171.66Z" style="fill: rgb(255, 255, 255); opacity: 0.9; transform-origin: 263.823px 162.92px;" class="animable"></path></g><path d="M259.69,168.33c-1.2,2.33-2.11,2.58-2.88,2.19s-1.1-1.28.1-3.62,8.23-14.53,9-14.14S260.88,166,259.69,168.33Z" style="fill: rgb(64, 123, 255); transform-origin: 261.049px 161.711px;" id="el6c13v066dgn" class="animable"></path><g id="eloerxc1yufw8"><path d="M259.69,168.33c-1.2,2.33-2.11,2.58-2.88,2.19s-1.1-1.28.1-3.62,8.23-14.53,9-14.14S260.88,166,259.69,168.33Z" style="fill: rgb(255, 255, 255); opacity: 0.5; transform-origin: 261.049px 161.711px;" class="animable"></path></g><g id="elglhdy7v04j"><path d="M256.43,170.24a6,6,0,0,1,.79-2.31c1.06-2.07,6.71-11.9,8.51-13.81.23-.78.32-1.28.17-1.36-.76-.39-7.79,11.81-9,14.14C255.94,168.8,256,169.74,256.43,170.24Z" style="fill: rgb(255, 255, 255); opacity: 0.9; transform-origin: 261.053px 161.495px;" class="animable"></path></g><path d="M256.91,166.9c-1.2,2.34-2.11,2.59-2.88,2.2s-1.1-1.28.1-3.62,8.23-14.53,9-14.14S258.11,164.57,256.91,166.9Z" style="fill: rgb(64, 123, 255); transform-origin: 258.269px 160.29px;" id="elrior4v0wazo" class="animable"></path><g id="elc1pexob1p3l"><path d="M256.91,166.9c-1.2,2.34-2.11,2.59-2.88,2.2s-1.1-1.28.1-3.62,8.23-14.53,9-14.14S258.11,164.57,256.91,166.9Z" style="fill: rgb(255, 255, 255); opacity: 0.5; transform-origin: 258.269px 160.29px;" class="animable"></path></g><g id="el32lys9bi7gy"><path d="M253.65,168.82a6.41,6.41,0,0,1,.79-2.31c1.06-2.07,6.71-11.9,8.51-13.82.24-.78.32-1.28.18-1.35-.77-.39-7.8,11.8-9,14.14C253.16,167.38,253.19,168.32,253.65,168.82Z" style="fill: rgb(255, 255, 255); opacity: 0.9; transform-origin: 258.27px 160.075px;" class="animable"></path></g><path d="M254.13,165.48c-1.2,2.34-2.11,2.59-2.88,2.19s-1.09-1.28.1-3.61,8.23-14.54,9-14.14S255.33,163.14,254.13,165.48Z" style="fill: rgb(38, 50, 56); transform-origin: 255.491px 158.868px;" id="elyofc7ark5bp" class="animable"></path><g id="elh9qrjfxf7lg"><path d="M254.13,165.48c-1.2,2.34-2.11,2.59-2.88,2.19s-1.09-1.28.1-3.61,8.23-14.54,9-14.14S255.33,163.14,254.13,165.48Z" style="fill: rgb(255, 255, 255); opacity: 0.6; transform-origin: 255.491px 158.868px;" class="animable"></path></g><g id="elj9445cg4jcr"><path d="M250.88,167.39a6.13,6.13,0,0,1,.78-2.3c1.06-2.08,6.71-11.9,8.51-13.82.24-.78.32-1.28.18-1.35-.77-.4-7.8,11.8-9,14.14C250.38,166,250.42,166.9,250.88,167.39Z" style="fill: rgb(255, 255, 255); opacity: 0.9; transform-origin: 255.493px 158.65px;" class="animable"></path></g><path d="M251.35,164.06c-1.19,2.33-2.11,2.58-2.87,2.19s-1.1-1.28.1-3.62,8.22-14.53,9-14.14S252.55,161.72,251.35,164.06Z" style="fill: rgb(38, 50, 56); transform-origin: 252.722px 157.441px;" id="elcnk5n07gjl" class="animable"></path><g id="elpbu4qj32tn"><path d="M251.35,164.06c-1.19,2.33-2.11,2.58-2.87,2.19s-1.1-1.28.1-3.62,8.22-14.53,9-14.14S252.55,161.72,251.35,164.06Z" style="fill: rgb(255, 255, 255); opacity: 0.6; transform-origin: 252.722px 157.441px;" class="animable"></path></g><g id="eljch852ku4pj"><path d="M248.1,166a6.16,6.16,0,0,1,.78-2.31c1.06-2.07,6.72-11.89,8.51-13.81.24-.78.32-1.28.18-1.36-.77-.39-7.8,11.81-9,14.14C247.6,164.53,247.64,165.47,248.1,166Z" style="fill: rgb(255, 255, 255); opacity: 0.9; transform-origin: 252.713px 157.255px;" class="animable"></path></g><path d="M291,167.86c11.87,8.62,31.39,29.57,43.27,38.19,23.27,16.89,102.36,52.44,102.36,52.44a5.36,5.36,0,0,0,7.2-2.33h0a5.35,5.35,0,0,0-2.32-7.2s-81.4-36.28-105.13-53.85c-10.69-7.91-27.95-27.15-38.66-35.05-8.3-6.11-36.77-18.63-36.77-18.63a4.91,4.91,0,0,0-6.6,2.14h0a4.91,4.91,0,0,0,2.14,6.61S283.13,162.17,291,167.86Z" style="fill: rgb(64, 123, 255); transform-origin: 349.115px 199.984px;" id="elqknbuzjh74" class="animable"></path><path d="M407.34,181.71c.75,2.56,1.33,5,1.91,7.54s1.05,5.05,1.48,7.62.76,5.17,1,7.84a47,47,0,0,1,0,8.38,18.73,18.73,0,0,1-1.14,4.87,10.76,10.76,0,0,1-1.55,2.69,9.32,9.32,0,0,1-1,1.08,10.34,10.34,0,0,1-1,.91,24.16,24.16,0,0,1-8,4.07,56.09,56.09,0,0,1-15.69,2.42l-.62-4.92a88.65,88.65,0,0,0,13.45-4.81,18.11,18.11,0,0,0,5-3.29,3,3,0,0,0,.35-.4,2.15,2.15,0,0,0,.25-.36,3.07,3.07,0,0,0,.25-.59,10.85,10.85,0,0,0,.34-2.48,39.41,39.41,0,0,0-.35-6.64c-.28-2.32-.66-4.68-1.12-7-.89-4.72-2-9.56-3.19-14.18Z" style="fill: rgb(128, 62, 60); transform-origin: 397.324px 205.42px;" id="eloyjnbzofzo" class="animable"></path><path d="M406.81,176c5.37,3.77,7.14,23.27,7.14,23.27l-16.66,2a96,96,0,0,1-2.22-17.14C394.87,175,400.3,171.46,406.81,176Z" style="fill: rgb(64, 123, 255); transform-origin: 404.507px 187.649px;" id="elvqpg40nm1kp" class="animable"></path><g id="eldtod3vo4mho"><path d="M406.81,176c5.37,3.77,7.14,23.27,7.14,23.27l-16.66,2a96,96,0,0,1-2.22-17.14C394.87,175,400.3,171.46,406.81,176Z" style="fill: rgb(255, 255, 255); opacity: 0.7; transform-origin: 404.507px 187.649px;" class="animable"></path></g><path d="M383.39,224.28,376.82,222l.95,8.74s6,.65,6.69-2.51Z" style="fill: rgb(127, 62, 59); transform-origin: 380.64px 226.398px;" id="el3x0pg8vrjsc" class="animable"></path><polygon points="371.44 223.91 372.56 231.09 377.77 230.78 376.81 222.04 371.44 223.91" style="fill: rgb(127, 62, 59); transform-origin: 374.605px 226.565px;" id="el9mz1tubtatt" class="animable"></polygon></g><defs>     <filter id="active" height="200%">         <feMorphology in="SourceAlpha" result="DILATED" operator="dilate" radius="2"></feMorphology>                <feFlood flood-color="#32DFEC" flood-opacity="1" result="PINK"></feFlood>        <feComposite in="PINK" in2="DILATED" operator="in" result="OUTLINE"></feComposite>        <feMerge>            <feMergeNode in="OUTLINE"></feMergeNode>            <feMergeNode in="SourceGraphic"></feMergeNode>        </feMerge>    </filter>    <filter id="hover" height="200%">        <feMorphology in="SourceAlpha" result="DILATED" operator="dilate" radius="2"></feMorphology>                <feFlood flood-color="#ff0000" flood-opacity="0.5" result="PINK"></feFlood>        <feComposite in="PINK" in2="DILATED" operator="in" result="OUTLINE"></feComposite>        <feMerge>            <feMergeNode in="OUTLINE"></feMergeNode>            <feMergeNode in="SourceGraphic"></feMergeNode>        </feMerge>            <feColorMatrix type="matrix" values="0   0   0   0   0                0   1   0   0   0                0   0   0   0   0                0   0   0   1   0 "></feColorMatrix>    </filter></defs></svg>