<svg width="38" height="37" viewBox="0 0 38 37" fill="none" xmlns="http://www.w3.org/2000/svg">
<path d="M14.2038 2.2384C14.2038 2.2384 6.31604 0.727441 3.39901 2.85665C0.481971 4.98586 0.333722 7.49931 0.0415823 9.04782C-0.250557 10.5963 1.06189 13.884 1.93831 15.3343C2.81473 16.7846 4.27542 19.2027 4.12717 20.9448C3.97892 22.6869 4.45856 27.1707 4.71145 28.1991C5.28265 30.5219 7.92499 34.7775 10.6981 35.2599C13.4713 35.7424 14.3477 34.8728 14.3477 33.0354C14.3477 31.198 15.2241 20.7513 20.1861 21.1384C25.1481 21.5226 24.856 25.391 25.0042 27.3267C25.1481 29.2623 26.478 35.5344 28.959 35.3408C31.44 35.1472 34.4922 30.8079 34.6405 27.1331C34.7887 23.4583 33.328 21.8144 34.6405 19.0092C35.9529 16.2039 37.9979 13.4969 37.9979 10.5935C37.9979 8.34001 38.1941 4.65073 34.7844 2.85665C31.6886 1.22724 29.5084 1.64037 27.9213 1.69526C23.9621 1.83394 21.7733 3.6858 14.2038 2.2384Z" fill="#E1E7EA"/>
<path d="M19.9351 6.95194C21.2058 6.95194 25.8222 4.77241 25.2789 4.21741C24.4506 3.37045 20.903 5.2667 19.5789 5.18288C18.1955 5.09616 16.7675 4.54694 15.4316 4.4053C14.9714 4.35616 14.3806 4.50069 14.8823 5.07592C15.2475 5.49217 18.6645 6.95194 19.9351 6.95194Z" fill="#95CBDE"/>
<path d="M14.8942 6.98374C15.5651 7.41733 16.2331 7.96366 16.4439 8.721C16.4736 8.82796 16.4943 8.94358 16.4557 9.05053C16.4201 9.14592 16.34 9.22108 16.2568 9.28178C15.8561 9.57085 15.3365 9.646 14.8378 9.65178C13.4276 9.66624 12.0175 9.1835 10.9279 8.31342C10.2392 7.76421 8.68058 5.55866 10.4381 5.33608C11.8928 5.14819 13.7423 6.24374 14.8942 6.98374Z" fill="white"/>
<path d="M27.0008 5.87953C27.3304 5.77836 27.7163 5.69742 28.0013 5.88821C28.1319 5.97493 28.221 6.11078 28.2833 6.25242C28.5149 6.77563 28.4021 7.4 28.1052 7.89141C27.8083 8.38282 27.3452 8.7586 26.8643 9.08524C26.1429 9.57086 25.3413 9.96399 24.4804 10.123C23.6194 10.282 22.6902 10.1866 21.9332 9.75586C21.8352 9.70094 21.7372 9.63446 21.6838 9.53907C21.568 9.32805 21.7135 9.06789 21.8975 8.9118C23.4116 7.63703 25.0711 6.47789 27.0008 5.87953Z" fill="white"/>
</svg>
