<svg width="39" height="43" viewBox="0 0 39 43" fill="none" xmlns="http://www.w3.org/2000/svg">
<path d="M15.494 2.78264C13.8049 1.58928 11.7336 0.937524 9.60207 0.937524C4.29328 0.937524 0 4.85725 0 9.70413V10.2733C0 11.7237 0.372017 13.1465 1.07583 14.45L3.43865 18.7737C3.8911 19.5907 4.20279 20.4627 4.38377 21.3623L8.08384 40.2449C8.28493 41.2731 9.25016 42.0258 10.3863 42.0625C11.5225 42.0992 12.538 41.3832 12.7994 40.3735L15.7052 29.2385C16.1073 27.7147 17.5954 26.6406 19.3047 26.6406C21.014 26.6406 22.502 27.7147 22.9042 29.2385L25.81 40.3735C26.0714 41.3924 27.0869 42.0992 28.2231 42.0625C29.3592 42.0258 30.3244 41.2731 30.5255 40.2449L34.2155 21.3531C34.3965 20.4535 34.7082 19.5815 35.1607 18.7645L37.5235 14.4408C38.2374 13.1465 38.5993 11.7145 38.5993 10.2641V10.0713C38.5993 5.02249 34.115 0.928345 28.585 0.928345C26.1619 0.928345 23.8192 1.73616 21.9892 3.18655L21.6675 3.44358L23.6281 4.83889C24.332 5.33459 24.4526 6.26174 23.9097 6.90432C23.3667 7.5469 22.3512 7.65706 21.6474 7.16135L19.1941 5.41721L15.4739 2.77346L15.494 2.78264Z" fill="white"/>
</svg>
