<svg width="88" height="80" viewBox="0 0 88 80" fill="none" xmlns="http://www.w3.org/2000/svg">
<ellipse cx="44" cy="40" rx="44" ry="40" fill="#8DBFDA"/>
<path d="M38.4599 18.6984C36.4474 17.2766 33.9797 16.5 31.4401 16.5C25.1151 16.5 20 21.1703 20 26.9453V27.6234C20 29.3516 20.4432 31.0469 21.2818 32.6L24.0969 37.7516C24.6359 38.725 25.0073 39.7641 25.2229 40.836L29.6313 63.3344C29.8708 64.5594 31.0208 65.4563 32.3745 65.5C33.7281 65.5438 34.938 64.6906 35.2495 63.4875L38.7115 50.2203C39.1906 48.4047 40.9635 47.125 43 47.125C45.0365 47.125 46.8094 48.4047 47.2885 50.2203L50.7505 63.4875C51.062 64.7016 52.2719 65.5438 53.6255 65.5C54.9792 65.4563 56.1292 64.5594 56.3688 63.3344L60.7651 40.825C60.9807 39.7531 61.3521 38.7141 61.8911 37.7406L64.7062 32.5891C65.5568 31.0469 65.988 29.3406 65.988 27.6125V27.3828C65.988 21.3672 60.6453 16.4891 54.0568 16.4891C51.1698 16.4891 48.3786 17.4516 46.1984 19.1797L45.8151 19.4859L48.151 21.1484C48.9896 21.7391 49.1333 22.8438 48.4865 23.6094C47.8396 24.375 46.6297 24.5063 45.7911 23.9156L42.8682 21.8375L38.4359 18.6875L38.4599 18.6984Z" fill="white"/>
</svg>
