<svg width="43" height="50" viewBox="0 0 43 50" fill="none" xmlns="http://www.w3.org/2000/svg">
<g clip-path="url(#clip0_57_1400)">
<path d="M21.3057 13.7695C15.259 13.7695 10.3818 18.7793 10.3818 24.9902C10.3818 31.2012 15.259 36.2109 21.3057 36.2109C27.3523 36.2109 32.2295 31.2012 32.2295 24.9902C32.2295 18.7793 27.3523 13.7695 21.3057 13.7695ZM21.3057 32.2852C17.3982 32.2852 14.2037 29.0137 14.2037 24.9902C14.2037 20.9668 17.3887 17.6953 21.3057 17.6953C25.2227 17.6953 28.4076 20.9668 28.4076 24.9902C28.4076 29.0137 25.2132 32.2852 21.3057 32.2852ZM35.2243 13.3105C35.2243 14.7656 34.0835 15.9277 32.6764 15.9277C31.2598 15.9277 30.1284 14.7559 30.1284 13.3105C30.1284 11.8652 31.2693 10.6934 32.6764 10.6934C34.0835 10.6934 35.2243 11.8652 35.2243 13.3105ZM42.4594 15.9668C42.2977 12.4609 41.5181 9.35547 39.0177 6.79687C36.5268 4.23828 33.5035 3.4375 30.0904 3.26172C26.5727 3.05664 16.0291 3.05664 12.5114 3.26172C9.10784 3.42773 6.08452 4.22852 3.58411 6.78711C1.0837 9.3457 0.313607 12.4512 0.142476 15.957C-0.0571764 19.5703 -0.0571764 30.4004 0.142476 34.0137C0.3041 37.5195 1.0837 40.625 3.58411 43.1836C6.08452 45.7422 9.09833 46.543 12.5114 46.7187C16.0291 46.9238 26.5727 46.9238 30.0904 46.7187C33.5035 46.5527 36.5268 45.7519 39.0177 43.1836C41.5086 40.625 42.2882 37.5195 42.4594 34.0137C42.659 30.4004 42.659 19.5801 42.4594 15.9668ZM37.9149 37.8906C37.1733 39.8047 35.7377 41.2793 33.8648 42.0508C31.0601 43.1934 24.405 42.9297 21.3057 42.9297C18.2063 42.9297 11.5417 43.1836 8.74656 42.0508C6.88313 41.2891 5.44754 39.8144 4.69646 37.8906C3.58411 35.0098 3.84081 28.1738 3.84081 24.9902C3.84081 21.8066 3.59362 14.9609 4.69646 12.0898C5.43803 10.1758 6.87363 8.70117 8.74656 7.92969C11.5512 6.78711 18.2063 7.05078 21.3057 7.05078C24.405 7.05078 31.0696 6.79687 33.8648 7.92969C35.7282 8.69141 37.1638 10.166 37.9149 12.0898C39.0272 14.9707 38.7705 21.8066 38.7705 24.9902C38.7705 28.1738 39.0272 35.0195 37.9149 37.8906Z" fill="white"/>
</g>
<defs>
<clipPath id="clip0_57_1400">
<rect width="42.5926" height="50" fill="white"/>
</clipPath>
</defs>
</svg>
