<svg width="53" height="61" viewBox="0 0 53 61" fill="none" xmlns="http://www.w3.org/2000/svg">
<path d="M45.0618 11.5686C40.1049 6.56465 33.5036 3.8125 26.4882 3.8125C12.0078 3.8125 0.224777 15.6789 0.224777 30.2617C0.224777 34.9201 1.43147 39.4713 3.72656 43.4863L0 57.1875L13.9243 53.5061C17.7574 55.6148 22.0754 56.7229 26.4763 56.7229H26.4882C40.9567 56.7229 53 44.8564 53 30.2736C53 23.2086 50.0187 16.5725 45.0618 11.5686ZM26.4882 52.267C22.5605 52.267 18.7156 51.2066 15.3676 49.2051L14.575 48.7285L6.31741 50.9088L8.51786 42.7953L7.99732 41.9613C5.80871 38.4586 4.66116 34.4197 4.66116 30.2617C4.66116 18.1451 14.4567 8.28027 26.5 8.28027C32.3324 8.28027 37.8098 10.5678 41.9268 14.7258C46.0438 18.8838 48.5754 24.4 48.5636 30.2736C48.5636 42.4021 38.5196 52.267 26.4882 52.267ZM38.4605 35.8018C37.8098 35.4682 34.5801 33.8717 33.9768 33.6572C33.3734 33.4309 32.9357 33.3236 32.498 33.9908C32.0603 34.658 30.8063 36.1354 30.4158 36.5881C30.0373 37.0289 29.6469 37.0885 28.9962 36.7549C25.1395 34.8129 22.6078 33.2879 20.0643 28.8916C19.39 27.724 20.7386 27.8074 21.9926 25.2816C22.2056 24.8408 22.0991 24.4596 21.9335 24.126C21.7679 23.7924 20.4547 20.5398 19.9105 19.2174C19.3781 17.9307 18.8339 18.1094 18.4317 18.0855C18.0531 18.0617 17.6154 18.0617 17.1777 18.0617C16.74 18.0617 16.0301 18.2285 15.4268 18.8838C14.8234 19.551 13.1317 21.1475 13.1317 24.4C13.1317 27.6525 15.4859 30.7979 15.8054 31.2387C16.1366 31.6795 20.431 38.3514 27.0205 41.2227C31.1848 43.0336 32.8174 43.1885 34.8996 42.8787C36.1654 42.6881 38.7799 41.2822 39.3241 39.7334C39.8683 38.1846 39.8683 36.8621 39.7027 36.5881C39.5489 36.2902 39.1112 36.1234 38.4605 35.8018Z" fill="white"/>
</svg>
